<svg xmlns="http://www.w3.org/2000/svg" version="1.1" xmlns:xlink="http://www.w3.org/1999/xlink" xmlns:svgjs="http://svgjs.dev/svgjs" width="1000" height="1000" viewBox="0 0 1000 1000"><rect width="1000" height="1000" fill="#000000"></rect><g transform="matrix(0.7,0,0,0.7,149.57575757575756,282.1265587044535)"><svg viewBox="0 0 396 247" data-background-color="#dedede" preserveAspectRatio="xMidYMid meet" height="623" width="1000" xmlns="http://www.w3.org/2000/svg" xmlns:xlink="http://www.w3.org/1999/xlink"><g id="tight-bounds" transform="matrix(1,0,0,1,0.2400000000000091,-0.09999999999999432)"><svg viewBox="0 0 395.52 247.2" height="247.2" width="395.52"><g><svg></svg></g><g><svg viewBox="0 0 395.52 247.2" height="247.2" width="395.52"><g transform="matrix(1,0,0,1,39.55199999999999,97.52668824020017)"><svg viewBox="0 0 316.416 52.14662351959966" height="52.14662351959966" width="316.416"><g><svg viewBox="0 0 316.416 52.14662351959966" height="52.14662351959966" width="316.416"><g><svg viewBox="0 0 316.41600000000005 52.14662351959967" height="52.14662351959966" width="316.416"><g><svg viewBox="0 0 316.41600000000005 52.14662351959967" height="52.14662351959967" width="316.41600000000005"><g><svg viewBox="0 0 316.41600000000005 52.14662351959967" height="52.14662351959967" width="316.41600000000005"><g><svg viewBox="0 0 316.41600000000005 52.14662351959967" height="52.14662351959967" width="316.41600000000005"><g transform="matrix(1,0,0,1,0,0)"><svg width="316.41600000000005" viewBox="1.3700000047683716 -38.09000015258789 292.69000244140625 48.25" height="52.14662351959967" data-palette-color="#374151"><path d="M24.15 0L9.81 0 9.81-4 13.65-4.74 13.65-30.44 6.84-30.44 6.37-26.05 1.37-26.05 1.37-35.55 32.62-35.55 32.62-26.05 27.59-26.05 27.12-30.44 20.29-30.44 20.29-4.74 24.15-4 24.15 0ZM46.02 0.51L46.02 0.51Q42.26 0.51 39.46-1.16 36.67-2.83 35.13-5.77 33.59-8.72 33.59-12.5L33.59-12.5 33.59-13.5Q33.59-17.38 35.07-20.42 36.55-23.46 39.21-25.18 41.87-26.9 45.36-26.9L45.36-26.9Q48.95-26.9 51.39-25.48 53.83-24.05 55.08-21.39 56.32-18.73 56.32-14.99L56.32-14.99 56.32-11.3 40.48-11.3 40.43-11.16Q40.52-9.25 41.28-7.78 42.04-6.3 43.41-5.44 44.77-4.59 46.73-4.59L46.73-4.59Q48.8-4.59 50.52-5.13 52.24-5.66 53.81-6.71L53.81-6.71 55.71-2.59Q54.12-1.27 51.68-0.38 49.24 0.51 46.02 0.51ZM40.48-15.94L40.55-15.82 50.07-15.82 50.07-16.46Q50.07-18.12 49.58-19.35 49.09-20.58 48.08-21.26 47.07-21.95 45.46-21.95L45.46-21.95Q43.99-21.95 42.94-21.15 41.89-20.36 41.28-19.01 40.67-17.65 40.48-15.94L40.48-15.94ZM71.99 0L58.93 0 58.93-4 62.2-4.49 69.84-13.26 62.57-21.92 59.52-22.39 59.52-26.42 72.02-26.42 72.02-22.53 69.84-22.22 74.02-16.82 78.14-22.22 75.75-22.53 75.75-26.42 87.86-26.42 87.86-22.39 84.98-21.92 78.12-13.5 85.81-4.49 88.94-4 88.94 0 75.9 0 75.9-3.86 78.36-4.17 73.95-9.64 69.6-4.15 71.99-3.86 71.99 0ZM101.48 0.49L101.48 0.49Q97.97 0.49 96.03-1.48 94.08-3.44 94.08-7.71L94.08-7.71 94.08-21.7 90.35-21.7 90.35-26.42 94.08-26.42 94.08-32.86 100.7-32.86 100.7-26.42 105.75-26.42 105.75-21.7 100.7-21.7 100.7-7.71Q100.7-6.1 101.38-5.4 102.07-4.69 103.22-4.69L103.22-4.69Q103.85-4.69 104.61-4.79 105.36-4.88 105.88-4.98L105.88-4.98 106.51-0.27Q105.41 0.05 104.08 0.27 102.75 0.49 101.48 0.49ZM135.61 0.51L135.61 0.51Q131.82 0.51 128.64-0.38 125.45-1.27 122.42-3.39L122.42-3.39 122.42-11.79 127.55-11.79 128.33-6.62Q129.53-5.69 131.45-5.13 133.36-4.57 135.61-4.57L135.61-4.57Q137.66-4.57 139.06-5.14 140.47-5.71 141.2-6.77 141.93-7.84 141.93-9.25L141.93-9.25Q141.93-10.62 141.27-11.66 140.61-12.7 139.11-13.54 137.61-14.38 135.05-15.14L135.05-15.14Q130.94-16.28 128.21-17.75 125.48-19.21 124.12-21.28 122.77-23.34 122.77-26.2L122.77-26.2Q122.77-29.05 124.34-31.26 125.92-33.47 128.71-34.74 131.51-36.01 135.14-36.04L135.14-36.04Q139.2-36.08 142.3-35.03 145.4-33.98 147.59-32.2L147.59-32.2 147.59-24.39 142.59-24.39 141.69-29.3Q140.71-29.96 139.12-30.42 137.54-30.88 135.46-30.88L135.46-30.88Q133.68-30.88 132.31-30.33 130.94-29.79 130.16-28.74 129.38-27.69 129.38-26.22L129.38-26.22Q129.38-24.95 130.07-24 130.75-23.05 132.36-22.24 133.97-21.44 136.73-20.58L136.73-20.58Q142.57-18.99 145.58-16.3 148.6-13.6 148.6-9.3L148.6-9.3Q148.6-6.32 146.97-4.11 145.35-1.9 142.43-0.7 139.51 0.51 135.61 0.51ZM165.22 10.16L151.47 10.16 151.47 6.13 154.99 5.4 154.99-21.66 151.13-22.39 151.13-26.42 161.02-26.42 161.39-23.32Q162.58-25.05 164.29-25.98 166-26.9 168.34-26.9L168.34-26.9Q171.54-26.9 173.83-25.16 176.11-23.41 177.33-20.26 178.55-17.11 178.55-12.94L178.55-12.94 178.55-12.43Q178.55-8.54 177.33-5.63 176.11-2.71 173.83-1.1 171.54 0.51 168.32 0.51L168.32 0.51Q166.12 0.51 164.46-0.27 162.8-1.05 161.61-2.56L161.61-2.56 161.61 5.4 165.22 6.13 165.22 10.16ZM166.32-4.59L166.32-4.59Q169.2-4.59 170.54-6.71 171.88-8.84 171.88-12.43L171.88-12.43 171.88-12.94Q171.88-15.55 171.29-17.52 170.69-19.48 169.44-20.59 168.2-21.7 166.27-21.7L166.27-21.7Q164.68-21.7 163.5-20.98 162.31-20.26 161.61-18.97L161.61-18.97 161.61-7.13Q162.31-5.91 163.5-5.25 164.68-4.59 166.32-4.59ZM194.78 0L181.01 0 181.01-4 184.58-4.74 184.58-33.33 180.74-34.06 180.74-38.09 191.22-38.09 191.22-4.74 194.78-4 194.78 0ZM210.84 0L197.12 0 197.12-4 200.66-4.74 200.66-21.66 196.83-22.39 196.83-26.42 207.3-26.42 207.3-4.74 210.84-4 210.84 0ZM207.3-32.2L200.42-32.2 200.42-38.09 207.3-38.09 207.3-32.2ZM223.56 0.49L223.56 0.49Q220.05 0.49 218.1-1.48 216.16-3.44 216.16-7.71L216.16-7.71 216.16-21.7 212.43-21.7 212.43-26.42 216.16-26.42 216.16-32.86 222.78-32.86 222.78-26.42 227.83-26.42 227.83-21.7 222.78-21.7 222.78-7.71Q222.78-6.1 223.46-5.4 224.15-4.69 225.29-4.69L225.29-4.69Q225.93-4.69 226.69-4.79 227.44-4.88 227.96-4.98L227.96-4.98 228.59-0.27Q227.49 0.05 226.16 0.27 224.83 0.49 223.56 0.49ZM241.48 0.49L241.48 0.49Q237.96 0.49 236.02-1.48 234.08-3.44 234.08-7.71L234.08-7.71 234.08-21.7 230.35-21.7 230.35-26.42 234.08-26.42 234.08-32.86 240.7-32.86 240.7-26.42 245.75-26.42 245.75-21.7 240.7-21.7 240.7-7.71Q240.7-6.1 241.38-5.4 242.06-4.69 243.21-4.69L243.21-4.69Q243.85-4.69 244.6-4.79 245.36-4.88 245.87-4.98L245.87-4.98 246.51-0.27Q245.41 0.05 244.08 0.27 242.75 0.49 241.48 0.49ZM261.18 0.51L261.18 0.51Q257.42 0.51 254.62-1.16 251.83-2.83 250.29-5.77 248.75-8.72 248.75-12.5L248.75-12.5 248.75-13.5Q248.75-17.38 250.23-20.42 251.71-23.46 254.37-25.18 257.03-26.9 260.52-26.9L260.52-26.9Q264.11-26.9 266.55-25.48 268.99-24.05 270.24-21.39 271.48-18.73 271.48-14.99L271.48-14.99 271.48-11.3 255.64-11.3 255.59-11.16Q255.69-9.25 256.44-7.78 257.2-6.3 258.57-5.44 259.93-4.59 261.89-4.59L261.89-4.59Q263.96-4.59 265.68-5.13 267.4-5.66 268.97-6.71L268.97-6.71 270.87-2.59Q269.28-1.27 266.84-0.38 264.4 0.51 261.18 0.51ZM255.64-15.94L255.71-15.82 265.23-15.82 265.23-16.46Q265.23-18.12 264.74-19.35 264.25-20.58 263.24-21.26 262.23-21.95 260.62-21.95L260.62-21.95Q259.15-21.95 258.1-21.15 257.05-20.36 256.44-19.01 255.83-17.65 255.64-15.94L255.64-15.94ZM289.01 0L275.29 0 275.29-4 278.83-4.74 278.83-21.66 275.02-22.39 275.02-26.42 284.98-26.42 285.27-23.12 285.32-22.56Q286.32-24.68 287.81-25.79 289.3-26.9 291.33-26.9L291.33-26.9Q291.99-26.9 292.76-26.79 293.52-26.68 294.06-26.51L294.06-26.51 293.3-20.39 289.81-20.58Q288.23-20.65 287.21-20 286.2-19.34 285.47-18.12L285.47-18.12 285.47-4.74 289.01-4 289.01 0Z" opacity="1" transform="matrix(1,0,0,1,0,0)" fill="#ffffff" class="undefined-text-0" data-fill-palette-color="primary" id="text-0"></path></svg></g></svg></g></svg></g></svg></g><g></g></svg></g></svg></g></svg></g><g mask="url(#8f33bf27-70ae-42e4-86e4-368ff8f0430b)"><g transform="matrix(2.452, 0, 0, 2.452, 91.08574673461914, 1)"><svg xmlns="http://www.w3.org/2000/svg" xmlns:xlink="http://www.w3.org/1999/xlink" version="1.1" x="0" y="0" viewBox="6.607999801635742 0 87.00999450683594 100" enable-background="new 0 0 100 100" xml:space="preserve" height="100" width="87.00999450683594" class="icon-none" data-fill-palette-color="accent" id="none"><path d="M50.171 6.288c11.637 8.013 30.191 11.898 38.101 13.26 0.301 2.772 0.455 5.527 0.455 8.223 0 27.634-14.728 52.93-38.612 66.642C26.229 80.697 11.5 55.402 11.5 27.771c0-2.669 0.154-5.403 0.455-8.17C20.031 18.318 38.946 14.568 50.171 6.288M50.039 0C38.216 11.699 7.588 15.281 7.588 15.281c-0.628 4.078-0.98 8.24-0.98 12.49 0 31.327 17.64 58.512 43.506 72.229 25.87-13.718 43.504-40.902 43.504-72.229 0-4.25-0.346-8.412-0.973-12.49C92.646 15.281 62.822 11.34 50.039 0L50.039 0z" fill="#ffffff" data-fill-palette-color="accent"></path><path d="M20.738 26.015c-0.435 2.824-0.677 5.702-0.677 8.638 0 21.633 12.19 40.407 30.053 49.882 17.864-9.476 30.052-28.249 30.052-49.882 0-2.936-0.247-5.814-0.674-8.638 0 0-20.602-2.719-29.432-10.551C41.892 23.542 20.738 26.015 20.738 26.015z" fill="#ffffff" data-fill-palette-color="accent"></path></svg></g></g></svg></g><defs><mask id="ba8306f4-4eb0-4536-8138-8afd8a1f5e5a"><rect width="640" height="400" fill="white"></rect><rect width="348.05760000000004" height="76.76775610762567" fill="black" x="145.97119999999998" y="161.61612194618715" id="transform-me" transform="matrix(1,0,0,1,-122.24000000000001,-76.4)"></rect></mask><mask id="8f33bf27-70ae-42e4-86e4-368ff8f0430b"><rect width="640" height="400" fill="white"></rect><rect width="348.05760000000004" height="76.76775610762567" fill="black" x="145.97119999999998" y="161.61612194618715" id="transform-me" transform="matrix(1,0,0,1,-122.24000000000001,-76.4)"></rect></mask></defs></svg><rect width="395.52" height="247.2" fill="none" stroke="none" visibility="hidden"></rect></g></svg></g></svg>